<?xml version="1.0" standalone="no"?>
<!DOCTYPE svg PUBLIC "-//W3C//DTD SVG 20010904//EN"
 "http://www.w3.org/TR/2001/REC-SVG-20010904/DTD/svg10.dtd">
<svg version="1.0" xmlns="http://www.w3.org/2000/svg"
 width="229.000000pt" height="229.000000pt" viewBox="0 0 229.000000 229.000000"
 preserveAspectRatio="xMidYMid meet">
<metadata>
Created by potrace 1.14, written by Peter Selinger 2001-2017
</metadata>
<g transform="translate(0.000000,229.000000) scale(0.100000,-0.100000)"
fill="#000000" stroke="none">
<path d="M677 2238 c-16 -8 -18 -26 -18 -136 0 -70 -1 -147 -3 -172 -2 -25 2
-57 9 -72 l13 -28 -52 0 c-28 0 -57 -5 -64 -12 -7 -7 -12 -39 -12 -75 0 -56
-2 -63 -19 -63 -29 0 -32 -11 -33 -115 -1 -93 -1 -94 -27 -97 -25 -3 -26 -5
-29 -89 -2 -76 -5 -88 -22 -92 -18 -5 -19 -19 -24 -228 -10 -395 -10 -398 13
-466 26 -76 69 -151 129 -223 43 -52 56 -64 127 -128 39 -35 98 -73 165 -107
30 -15 64 -35 75 -46 46 -42 93 -52 235 -52 151 1 219 18 294 73 23 17 75 52
117 80 130 85 236 204 298 333 52 112 54 128 52 451 -1 165 -4 303 -7 308 -3
4 -14 8 -24 8 -17 0 -20 9 -22 88 -3 86 -3 87 -30 90 l-27 3 -3 102 c-3 101
-3 102 -29 105 -24 3 -25 6 -25 60 0 88 -3 92 -76 92 -48 0 -59 3 -50 12 17
17 16 137 -2 144 -8 3 -11 15 -8 30 3 18 -2 32 -18 46 l-23 21 23 19 c33 27
32 81 -3 115 -23 24 -35 27 -124 31 -128 6 -127 7 -125 -143 0 -92 -2 -115
-15 -119 -8 -3 -20 -3 -25 0 -16 10 -168 12 -174 2 -3 -4 -11 -8 -17 -8 -7 0
-4 5 6 11 10 6 17 22 17 42 0 28 4 33 25 35 31 2 77 25 95 47 21 25 14 75 -13
103 -22 21 -36 25 -113 29 -50 2 -95 0 -103 -6 -16 -11 -24 -188 -10 -228 8
-21 6 -22 -79 -19 -48 1 -98 -2 -111 -6 -26 -9 -51 4 -32 16 6 4 11 20 11 37
0 27 3 29 38 29 20 0 43 4 51 9 18 12 18 150 0 161 -18 12 -181 10 -202 -2z
m813 -247 c13 -12 12 -12 -5 -4 -11 6 -25 8 -32 6 -7 -3 -9 3 -6 18 5 18 8 20
18 8 6 -8 17 -20 25 -28z m-685 -151 c3 -6 -4 -10 -17 -10 -18 0 -20 2 -8 10
19 12 18 12 25 0z m330 0 c4 -6 -7 -10 -27 -9 -27 0 -30 2 -13 9 27 12 33 12
40 0z m140 0 c4 -6 -5 -10 -20 -10 -15 0 -24 4 -20 10 3 6 12 10 20 10 8 0 17
-4 20 -10z m120 0 c3 -5 -3 -10 -15 -10 -12 0 -18 5 -15 10 3 6 10 10 15 10 5
0 12 -4 15 -10z m80 0 c3 -5 -1 -10 -10 -10 -9 0 -13 5 -10 10 3 6 8 10 10 10
2 0 7 -4 10 -10z m70 0 c3 -5 -1 -10 -10 -10 -9 0 -13 5 -10 10 3 6 8 10 10
10 2 0 7 -4 10 -10z"/>
</g>
</svg>
